<svg width="64" height="61" viewBox="0 0 64 61" fill="none" xmlns="http://www.w3.org/2000/svg">
<path fill-rule="evenodd" clip-rule="evenodd" d="M15.9456 7.61988L0 15.2324V30.4944V45.7564L15.9854 53.3782L31.9707 61L47.9488 53.3827L63.9267 45.7655L63.9633 30.5151L64 15.2648L63.0254 14.799C52.186 9.61871 31.967 -0.00547847 31.9346 2.33991e-06C31.9107 0.00405337 24.7157 3.4329 15.9456 7.61988ZM29.7988 9.88202V14.5288H20.0342C14.6637 14.5288 10.3045 14.5001 10.347 14.4649C10.4808 14.3544 29.5768 5.2499 29.6906 5.2424C29.75 5.23847 29.7988 7.3263 29.7988 9.88202ZM43.8425 9.78122C49.095 12.2814 53.4543 14.3725 53.5296 14.428C53.6051 14.4834 49.2705 14.5288 43.8973 14.5288H34.1279V9.88202C34.1279 7.3263 34.165 5.23525 34.2102 5.23525C34.2555 5.23525 38.5899 7.2809 43.8425 9.78122ZM29.7988 22.7463V27.3893L28.969 26.9912C28.5127 26.7723 24.3405 24.7848 19.6975 22.5745C15.0545 20.3642 11.0609 18.4548 10.8228 18.3315C10.3964 18.1106 10.5345 18.1072 20.0943 18.1053L29.7988 18.1032V22.7463ZM53.2443 18.2644C53.0877 18.3531 48.8686 20.3728 43.8684 22.7528C38.8683 25.1326 34.6312 27.1573 34.4526 27.252L34.1279 27.4242V22.7637V18.1032H43.8285C52.0257 18.1032 53.4847 18.1283 53.2443 18.2644ZM21.0684 27.3652C24.5605 29.0301 27.4652 30.4302 27.5231 30.4768C27.5811 30.5234 25.4472 31.5966 22.781 32.8619C20.1148 34.1271 17.8801 35.1173 17.8151 35.0625C17.6775 34.9467 8.15318 21.3448 8.15318 21.2642C8.15318 21.2347 9.63042 21.9143 11.4361 22.7744C13.2418 23.6346 17.5762 25.7005 21.0684 27.3652ZM51.0024 28.1244C48.3745 31.8855 46.1813 34.9997 46.1287 35.045C46.0363 35.1245 36.4368 30.6184 36.4368 30.4956C36.4368 30.4284 55.6777 21.226 55.7409 21.263C55.7625 21.2758 53.6303 24.3634 51.0024 28.1244ZM9.30545 30.1208C11.9344 33.8798 14.0656 36.9711 14.0415 36.9904C13.9392 37.0716 4.40358 41.5754 4.33374 41.5754C4.29146 41.5754 4.25697 37.4094 4.25697 32.3176C4.25697 26.6023 4.30834 23.1032 4.39132 23.173C4.4652 23.2352 6.67652 26.3618 9.30545 30.1208ZM59.6189 41.5379C59.5901 41.5617 58.3721 41.0112 56.9124 40.3145C55.4526 39.6178 53.2843 38.5887 52.0938 38.0278C50.9033 37.4667 49.9077 36.9945 49.8816 36.9784C49.837 36.9512 58.8439 23.9989 59.3615 23.3458C59.5813 23.0684 59.6002 23.6838 59.6345 32.2711C59.6549 37.344 59.6479 41.514 59.6189 41.5379ZM39.3478 36.0836L43.9182 38.2594L42.9414 39.6494C42.4042 40.4138 40.2245 43.5324 38.0976 46.5796C35.9708 49.6268 34.2076 52.1424 34.1793 52.1697C34.151 52.197 34.1279 48.0222 34.1279 42.8922V33.5651L34.4526 33.7364C34.6312 33.8307 36.834 34.8869 39.3478 36.0836ZM29.7644 47.5166L29.7266 52.1648L24.9646 45.3557C22.3455 41.6107 20.2026 38.4727 20.2026 38.3822C20.2026 38.2915 22.3336 37.2088 24.9646 35.9628L29.7266 33.7076L29.7644 38.288C29.7852 40.8071 29.7852 44.9601 29.7644 47.5166ZM21.1137 47.0119C23.7537 50.7883 25.8951 53.8917 25.8721 53.9084C25.8336 53.9363 6.73655 44.854 6.60465 44.7451C6.57247 44.7184 7.37408 44.3027 8.38594 43.8211C9.39795 43.3396 11.529 42.3214 13.1219 41.5585C14.7145 40.7957 16.0843 40.1657 16.1657 40.1585C16.247 40.1515 18.4737 43.2355 21.1137 47.0119ZM52.5808 42.3863C55.1503 43.6158 57.2313 44.6735 57.2052 44.7369C57.1548 44.8589 38.1286 53.9674 38.0505 53.9069C37.9547 53.8325 47.6087 40.1458 47.755 40.1483C47.8397 40.1497 50.0113 41.1568 52.5808 42.3863Z" fill="#F171C6"/>
</svg>
