<svg width="64" height="70" viewBox="0 0 64 70" fill="none" xmlns="http://www.w3.org/2000/svg">
<path fill-rule="evenodd" clip-rule="evenodd" d="M15.9456 8.74412L0 17.4798V34.9936V52.5074L15.9854 61.2537L31.9707 70L47.9488 61.2589L63.9267 52.5178L63.9633 35.0174L64 17.517L63.0254 16.9825C52.186 11.0379 31.967 -0.00628677 31.9346 2.68515e-06C31.9107 0.00465141 24.7157 3.93939 15.9456 8.74412ZM29.7988 11.34V16.6724H20.0342C14.6637 16.6724 10.3045 16.6394 10.347 16.5991C10.4808 16.4722 29.5768 6.02448 29.6906 6.01587C29.75 6.01135 29.7988 8.40723 29.7988 11.34ZM43.8425 11.2244C49.095 14.0934 53.4543 16.493 53.5296 16.5567C53.6051 16.6203 49.2705 16.6724 43.8973 16.6724H34.1279V11.34C34.1279 8.40723 34.165 6.00766 34.2102 6.00766C34.2555 6.00766 38.5899 8.35513 43.8425 11.2244ZM29.7988 26.1023V31.4303L28.969 30.9735C28.5127 30.7224 24.3405 28.4416 19.6975 25.9052C15.0545 23.3687 11.0609 21.1777 10.8228 21.0362C10.3964 20.7827 10.5345 20.7787 20.0943 20.7765L29.7988 20.7742V26.1023ZM53.2443 20.9592C53.0877 21.0609 48.8686 23.3786 43.8684 26.1097C38.8683 28.8407 34.6312 31.1641 34.4526 31.2728L34.1279 31.4704V26.1223V20.7742H43.8285C52.0257 20.7742 53.4847 20.8029 53.2443 20.9592ZM21.0684 31.4027C24.5605 33.3132 27.4652 34.9199 27.5231 34.9733C27.5811 35.0268 25.4472 36.2584 22.781 37.7103C20.1148 39.1623 17.8801 40.2986 17.8151 40.2357C17.6775 40.1028 8.15318 24.494 8.15318 24.4016C8.15318 24.3677 9.63042 25.1476 11.4361 26.1346C13.2418 27.1216 17.5762 29.4924 21.0684 31.4027ZM51.0024 32.2739C48.3745 36.5899 46.1813 40.1636 46.1287 40.2156C46.0363 40.3068 36.4368 35.1359 36.4368 34.9949C36.4368 34.9178 55.6777 24.3577 55.7409 24.4002C55.7625 24.4148 53.6303 27.958 51.0024 32.2739ZM9.30545 34.5648C11.9344 38.8784 14.0656 42.4258 14.0415 42.4479C13.9392 42.5412 4.40358 47.7095 4.33374 47.7095C4.29146 47.7095 4.25697 42.9288 4.25697 37.0858C4.25697 30.5272 4.30834 26.5118 4.39132 26.592C4.4652 26.6633 6.67652 30.2512 9.30545 34.5648ZM59.6189 47.6664C59.5901 47.6938 58.3721 47.0621 56.9124 46.2625C55.4526 45.4631 53.2843 44.2821 52.0938 43.6384C50.9033 42.9946 49.9077 42.4527 49.8816 42.4343C49.837 42.403 58.8439 27.5398 59.3615 26.7902C59.5813 26.4719 59.6002 27.1781 59.6345 37.0325C59.6549 42.8538 59.6479 47.6391 59.6189 47.6664ZM39.3478 41.4075L43.9182 43.9042L42.9414 45.4993C42.4042 46.3765 40.2245 49.9552 38.0976 53.452C35.9708 56.9488 34.2076 59.8356 34.1793 59.8669C34.151 59.8982 34.1279 55.1074 34.1279 49.2206V38.5173L34.4526 38.7139C34.6312 38.8221 36.834 40.0342 39.3478 41.4075ZM29.7644 54.5273L29.7266 59.8613L24.9646 52.0476C22.3455 47.75 20.2026 44.149 20.2026 44.0452C20.2026 43.941 22.3336 42.6986 24.9646 41.2688L29.7266 38.6808L29.7644 43.937C29.7852 46.8279 29.7852 51.5935 29.7644 54.5273ZM21.1137 53.9481C23.7537 58.2816 25.8951 61.843 25.8721 61.8621C25.8336 61.8941 6.73655 51.4718 6.60465 51.3468C6.57247 51.3162 7.37408 50.8392 8.38594 50.2865C9.39795 49.734 11.529 48.5655 13.1219 47.6901C14.7145 46.8147 16.0843 46.0917 16.1657 46.0835C16.247 46.0755 18.4737 49.6145 21.1137 53.9481ZM52.5808 48.6401C55.1503 50.0509 57.2313 51.2647 57.2052 51.3374C57.1548 51.4774 38.1286 61.9298 38.0505 61.8604C37.9547 61.775 47.6087 46.0689 47.755 46.0718C47.8397 46.0734 50.0113 47.2292 52.5808 48.6401Z" fill="#F171C6"/>
</svg>
